{"title":"The.Diary.of.Preston.Plummer.2012.HDTV.AC3-5.1.XviD-AXED","uid":7265672,"size":1519311733,"categoryP":"video","categoryS":"movies","magnet":"?xt=urn:btih:99f451a1039d5c269c10b374e5ead6e368ff0c88&amp;dn=The.Diary.of.Preston.Plummer.2012.HDTV.AC3-5.1.XviD-AXED&amp;tr=udp%3A%2F%2Ftracker.openbittorrent.com%3A80&amp;tr=udp%3A%2F%2Fopen.demonii.com%3A1337&amp;tr=udp%3A%2F%2Ftracker.coppersurfer.tk%3A6969&amp;tr=udp%3A%2F%2Fexodus.desync.com%3A6969","seeders":0,"leechers":2,"uploader":"maximersk","files":4,"time":1336877897,"description":"The.Diary.of.Preston.Plummer.2012.HDTV.AC3-5.1.XviD-AXED\n\n\n\n\n\nIMDB: &lt;a href=&quot;\nhttp://www.imdb.com/title/tt1319709/&quot; rel=&quot;nofollow&quot; target=&quot;_NEW&quot;&gt;\nhttp://www.imdb.com/title/tt1319709/&lt;/a&gt;\n\nPLOT INFO:\nOn the day of his college graduation, Preston Plummer cannot think of a single thing he really loves. Adrift, Preston follows a beautiful but troubled young woman to a small island town where he begins to fall for her, but it all threatens to fall apart when he uncovers her family's dark past.\n\nMEDIAINFO:\nGeneral\nComplete name : The.Diary.of.Preston.Plummer.2012.HDTV.AC3-5.1.XviD-AXED.avi\nFormat : AVI\nFormat/Info : Audio Video Interleave\nFile size : 1.38 GiB\nDuration : 1h 21mn\nOverall bit rate : 2 447 Kbps\n\nVideo\nID : 0\nFormat : MPEG-4 Visual\nFormat profile : Advanced Simple@L5\nFormat settings, BVOP : 1\nFormat settings, QPel : No\nFormat settings, GMC : No warppoints\nFormat settings, Matrix : Default (H.263)\nCodec ID : XVID\nCodec ID/Hint : XviD\nDuration : 1h 21mn\nBit rate : 2 049 Kbps\nWidth : 720 pixels\nHeight : 304 pixels\nDisplay aspect ratio : 2.35:1\nFrame rate : 59.940 fps\nColor space : YUV\nChroma subsampling : 4:2:0\nBit depth : 8 bits\nScan type : Progressive\nCompression mode : Lossy\nBits/(Pixel*Frame) : 0.156\nStream size : 1.16 GiB (84%)\nWriting library : XviD 1.2.1 (UTC 2008-12-04)\n\nAudio\nID : 1\nFormat : AC-3\nFormat/Info : Audio Coding 3\nMode extension : CM (complete main)\nFormat settings, Endianness : Big\nCodec ID : 2000\nDuration : 1h 21mn\nBit rate mode : Constant\nBit rate : 384 Kbps\nChannel(s) : 6 channels\nChannel positions : Front: L C R, Side: L R, LFE\nSampling rate : 48.0 KHz\nBit depth : 16 bits\nCompression mode : Lossy\nStream size : 223 MiB (16%)\nAlignment : Aligned on interleaves\nInterleave, duration : 64 ms (3.84 video frames)\nInterleave, preload duration : 192 ms\nTitle : The.Diary.of.Preston.Plummer.2012.HDTV.AC3-5.1-AXED.dga PID 1100 3_2ch 48KHz 384Kbps DELAY -18ms\n\n\n","torrent":{"xt":"urn:btih:99f451a1039d5c269c10b374e5ead6e368ff0c88","amp;dn":"The.Diary.of.Preston.Plummer.2012.HDTV.AC3-5.1.XviD-AXED","amp;tr":["udp%3A%2F%2Ftracker.openbittorrent.com%3A80","udp%3A%2F%2Fopen.demonii.com%3A1337","udp%3A%2F%2Ftracker.coppersurfer.tk%3A6969","udp%3A%2F%2Fexodus.desync.com%3A6969"],"infoHash":"99f451a1039d5c269c10b374e5ead6e368ff0c88","infoHashBuffer":{"type":"Buffer","data":[153,244,81,161,3,157,92,38,156,16,179,116,229,234,214,227,104,255,12,136]},"announce":[],"urlList":[]}}